<svg width="355" height="180" viewBox="0 0 355 180" fill="none" xmlns="http://www.w3.org/2000/svg">
<rect width="355" height="180" fill="white"/>
<path d="M54.812 46H114.361L86.0902 61.6351L127.216 123.589C128.473 125.483 127.249 128.032 124.986 128.236L50 135L89.1624 119.23C91.374 118.34 92.3204 115.724 91.1909 113.625L54.812 46Z" fill="#222222"/>
<path d="M147.882 83.5938V90.8857H153.504V94.8657H147.882V113.541C147.882 114.747 148.133 115.656 148.634 116.269C149.135 116.862 149.988 117.159 151.194 117.159C151.788 117.159 152.604 117.048 153.644 116.825V121C152.289 121.371 150.972 121.557 149.691 121.557C147.391 121.557 145.656 120.861 144.487 119.469C143.318 118.078 142.733 116.102 142.733 113.541V94.8657H137.25V90.8857H142.733V83.5938H147.882ZM157.624 105.665C157.624 102.714 158.199 100.061 159.349 97.7046C160.518 95.3481 162.132 93.5298 164.192 92.2495C166.27 90.9692 168.636 90.3291 171.289 90.3291C175.39 90.3291 178.702 91.7485 181.225 94.5874C183.767 97.4263 185.038 101.202 185.038 105.915V106.277C185.038 109.208 184.472 111.843 183.34 114.181C182.227 116.5 180.622 118.31 178.525 119.608C176.447 120.907 174.054 121.557 171.345 121.557C167.263 121.557 163.951 120.137 161.409 117.298C158.885 114.459 157.624 110.702 157.624 106.026V105.665ZM162.8 106.277C162.8 109.617 163.57 112.298 165.11 114.32C166.669 116.343 168.747 117.354 171.345 117.354C173.961 117.354 176.039 116.333 177.579 114.292C179.119 112.233 179.889 109.357 179.889 105.665C179.889 102.362 179.101 99.6899 177.523 97.6489C175.965 95.5894 173.887 94.5596 171.289 94.5596C168.747 94.5596 166.697 95.5708 165.138 97.5933C163.58 99.6157 162.8 102.51 162.8 106.277ZM206.051 95.5059C205.272 95.376 204.428 95.311 203.519 95.311C200.142 95.311 197.85 96.749 196.644 99.625V121H191.495V90.8857H196.505L196.588 94.3647C198.277 91.6743 200.67 90.3291 203.769 90.3291C204.771 90.3291 205.532 90.459 206.051 90.7188V95.5059ZM216.405 121H211.256V90.8857H216.405V121ZM210.838 82.8979C210.838 82.063 211.089 81.3579 211.59 80.7827C212.109 80.2075 212.87 79.9199 213.872 79.9199C214.874 79.9199 215.635 80.2075 216.154 80.7827C216.674 81.3579 216.934 82.063 216.934 82.8979C216.934 83.7329 216.674 84.4287 216.154 84.9854C215.635 85.542 214.874 85.8203 213.872 85.8203C212.87 85.8203 212.109 85.542 211.59 84.9854C211.089 84.4287 210.838 83.7329 210.838 82.8979ZM237.167 121.557C233.085 121.557 229.764 120.221 227.204 117.549C224.643 114.858 223.363 111.268 223.363 106.778V105.832C223.363 102.844 223.929 100.182 225.061 97.8438C226.211 95.4873 227.807 93.6504 229.848 92.333C231.907 90.9971 234.134 90.3291 236.527 90.3291C240.442 90.3291 243.485 91.6187 245.656 94.1978C247.827 96.7769 248.913 100.469 248.913 105.275V107.418H228.512C228.586 110.387 229.449 112.79 231.1 114.626C232.77 116.445 234.885 117.354 237.446 117.354C239.264 117.354 240.804 116.983 242.066 116.241C243.328 115.499 244.432 114.515 245.378 113.291L248.523 115.74C246 119.618 242.214 121.557 237.167 121.557ZM236.527 94.5596C234.449 94.5596 232.705 95.3203 231.295 96.8418C229.885 98.3447 229.013 100.46 228.679 103.188H243.764V102.798C243.615 100.182 242.91 98.1592 241.648 96.7305C240.387 95.2832 238.68 94.5596 236.527 94.5596ZM259.739 116.797H277.357V121H253.449V117.215L270.065 95.144H253.7V90.8857H276.522V94.5317L259.739 116.797Z" fill="#222222"/>
</svg>
